<svg xmlns="http://www.w3.org/2000/svg" viewBox="-60 -20 1620 620" width="1620" height="620">
  <path d="M653.777 45.902C677.207 -15.3007 763.793 -15.3007 787.223 45.902V45.902C806.582 96.4689 872.961 107.964 908.196 66.8506L921.092 51.8029C961.521 4.62859 1038.82 33.2652 1038.75 95.3935V95.3935C1038.7 147.758 1096.12 179.87 1140.71 152.408L1169.81 134.485C1220.34 103.358 1281.53 154.182 1260.19 209.57V209.57C1241.9 257.074 1285.47 305.168 1334.55 291.635L1368.28 282.333C1424.21 266.909 1466.26 333.284 1428.43 377.269V377.269C1395.65 415.369 1422.75 474.356 1473 474.319L1495.88 474.302C1554.13 474.258 1575.76 550.737 1526.11 581.206V581.206C1483.05 607.628 1493.34 672.982 1542.06 686.337V686.337C1599.85 702.179 1599.85 785.046 1542.06 800.887V800.887C1493.34 814.242 1483.05 879.597 1526.11 906.019V906.019C1575.76 936.488 1554.13 1012.97 1495.88 1012.92L1473 1012.91C1422.75 1012.87 1395.65 1071.86 1428.43 1109.96V1109.96C1466.26 1153.94 1424.21 1220.32 1368.28 1204.89L1334.55 1195.59C1285.47 1182.06 1241.9 1230.15 1260.19 1277.66V1277.66C1281.53 1333.04 1220.34 1383.87 1169.81 1352.74L1140.71 1334.82C1096.12 1307.36 1038.7 1339.47 1038.75 1391.83V1391.83C1038.82 1453.96 961.521 1482.6 921.092 1435.42L908.196 1420.37C872.961 1379.26 806.582 1390.76 787.223 1441.32V1441.32C763.793 1502.53 677.207 1502.53 653.777 1441.32V1441.32C634.418 1390.76 568.039 1379.26 532.804 1420.37L519.908 1435.42C479.479 1482.6 402.182 1453.96 402.246 1391.83V1391.83C402.301 1339.47 344.878 1307.36 300.292 1334.82L271.193 1352.74C220.657 1383.87 159.475 1333.04 180.806 1277.66V1277.66C199.101 1230.15 155.527 1182.06 106.454 1195.59L72.7226 1204.89C16.7911 1220.32 -25.2631 1153.94 12.5725 1109.96V1109.96C45.3456 1071.86 18.2512 1012.87 -32.0047 1012.91L-54.8787 1012.92C-113.133 1012.97 -134.759 936.488 -85.1077 906.019V906.019C-42.0517 879.597 -52.3415 814.242 -101.061 800.887V800.887C-158.85 785.046 -158.85 702.179 -101.061 686.337V686.337C-52.3415 672.982 -42.0517 607.627 -85.1077 581.206V581.206C-134.759 550.737 -113.133 474.258 -54.8788 474.302L-32.0047 474.319C18.2513 474.356 45.3456 415.369 12.5725 377.269V377.269C-25.2631 333.284 16.791 266.909 72.7224 282.333L106.454 291.635C155.527 305.167 199.101 257.074 180.806 209.57V209.57C159.475 154.182 220.657 103.358 271.193 134.485L300.292 152.408C344.878 179.87 402.301 147.758 402.246 95.3935V95.3935C402.182 33.2651 479.479 4.62859 519.908 51.8029L532.804 66.8506C568.039 107.964 634.418 96.4689 653.777 45.902V45.902Z" fill="white"/>
</svg>
